<?xml version="1.0" encoding="utf-8"?>
<!-- Generator: Adobe Illustrator 24.0.2, SVG Export Plug-In . SVG Version: 6.00 Build 0)  -->
<svg version="1.1" id="Layer_1" xmlns="http://www.w3.org/2000/svg" xmlns:xlink="http://www.w3.org/1999/xlink" x="0px" y="0px"
	 viewBox="0 0 540 108" style="enable-background:new 0 0 540 108;" xml:space="preserve">
<style type="text/css">
	.st0{fill:#231F20;}
	.st1{fill:#231F20;}
</style>
<g>
	<g>
		<path class="st0" d="M92.3,95.1V36.3L85,95.1h-6.9l-6.6-58.9v58.9h-8.6v-84h14.4l5.4,47.4l6.9-47.4h12.5v84H92.3z"/>
		<path class="st0" d="M129.1,95.1l-0.7-15.2h-5.8l-1,15.2h-8.8l6.9-84h12.4l7,84H129.1z M126.1,35.6l-2.5,33.5h4.3L126.1,35.6z"/>
		<path class="st0" d="M164.1,22.1v73h-9.7v-73h-7.1V11h23.3v11.1H164.1z"/>
		<path class="st0" d="M181.8,95.1v-84h20.4v10.1h-10.6v25.6h7.1v10.1h-7.1V85h10.6v10.1L181.8,95.1z"/>
		<path class="st0" d="M229.4,95.1c-0.8-4.3-1.2-8.6-1.2-13.1V62.3c0-1.9-0.8-3.3-2.2-3.3h-2.4v36.1h-9.9v-84h12.7
			c4.9,0,11.1,2.5,11.1,13.2v21.4c0,4-1.9,6.5-4.5,8.8c2.7,2.2,4.8,4.8,4.8,8.8v17.8c0.1,4.8,0.6,9.4,1.3,14.1L229.4,95.1z
			 M227.8,24.6c0-2.4-0.7-3.3-1.8-3.3h-2.5v28.3h2.5c1.1,0,1.8-1,1.8-3.3L227.8,24.6L227.8,24.6z"/>
		<path class="st0" d="M250.3,95.1v-84h9.9v84H250.3z"/>
		<path class="st0" d="M287.7,95.1L287,79.9h-5.8l-1,15.2h-8.8l6.9-84h12.4l7,84H287.7z M284.5,35.6L282,69.1h4.3L284.5,35.6z"/>
		<path class="st0" d="M308.7,95.1v-84h9.9V85h10.5v10.1H308.7z"/>
		<path class="st0" d="M351.2,96.1c-7.9,0-12.7-7-12.7-15.4V70.5h9.1v11.6c0,2.2,1.4,4.4,3.4,4.4s3.1-1.7,3.1-4.4
			c0-8.4-1.9-15.1-6.2-25c-3.7-8.5-9.1-21.7-9.1-30.5c0-9.7,4.1-16.7,13.1-16.7c6.9,0,11.9,7,11.9,15.4v11.2h-9.1V23.7
			c0-2.5-1.6-3.8-3-3.8c-1.4,0-3.1,1.2-3.1,3.8c0,11.2,1.9,14.6,6.5,25.6c4.5,10.7,8.9,21.6,8.9,30.5
			C364.1,93.1,356.3,96.1,351.2,96.1z"/>
	</g>
	<g>
		<path class="st1" d="M396.5,96.3c-7.9,0-12.7-6.9-12.7-15.4V70.7h9.1v11.6c0,2.2,1.4,4.4,3.4,4.4c2,0,3.1-1.7,3.1-4.4
			c0-8.4-1.9-15.1-6.2-25c-3.7-8.5-9.1-21.7-9.1-30.5c0-9.7,4.1-16.7,13.1-16.7c6.9,0,11.9,6.9,11.9,15.5v11.2h-9.2V24
			c0-2.5-1.6-3.8-3-3.8c-1.4,0-3.1,1.2-3.1,3.8c0,11.1,1.9,14.6,6.5,25.6c4.5,10.7,8.9,21.6,8.9,30.5
			C409.3,93.3,401.5,96.3,396.5,96.3z"/>
		<path class="st1" d="M436.2,95.3V59.2h-5.2v36.1h-9.6v-84h9.7v37.2h5.2V11.3h9.7v84H436.2z"/>
		<path class="st1" d="M470.6,96.3c-6.9,0-12.5-5.9-12.5-14.4V24.6c0-8.5,5.7-14.4,12.5-14.4s12.5,5.9,12.5,14.4V82
			C483.1,90.4,477.5,96.3,470.6,96.3z M473.2,23.8c0-1.9-1-3.1-2.5-3.1s-2.7,1.1-2.7,3.1v58.8c0,1.9,1,3.1,2.7,3.1s2.5-1.1,2.5-3.1
			V23.8z"/>
		<path class="st1" d="M524.2,95.3H517l-3.7-40.2l-3.8,40.2H502l-8.6-84h9.6l3.8,44.2l3.5-44.2h5.8l3.7,44.2l4.1-44.2h9L524.2,95.3z
			"/>
	</g>
	<g>
		<polygon class="st1" points="14.3,73 8.7,73 8.7,95.1 14.3,95.1 14.3,86.9 47.2,86.9 47.2,81.2 14.3,81.2 		"/>
		<polygon class="st1" points="8.7,46.6 23.9,46.6 23.9,63.1 8.7,63.1 8.7,68.9 47.2,68.9 47.2,63.1 29.6,63.1 29.6,46.6 47.2,46.6 
			47.2,41 8.7,41 		"/>
		<polygon class="st1" points="41.5,11.3 41.5,28.4 29.2,28.4 29.2,11.3 23.6,11.3 23.6,28.4 14.3,28.4 14.3,11.1 8.7,11.1 
			8.7,34.1 47.2,34.1 47.2,11.3 		"/>
	</g>
</g>
</svg>
